<svg width="198" height="175" viewBox="0 0 198 175" fill="none" xmlns="http://www.w3.org/2000/svg">
<g filter="url(#filter0_d_1_66)">
<rect x="35" y="15" width="128" height="105" rx="10" fill="white"/>
</g>
<path fill-rule="evenodd" clip-rule="evenodd" d="M52.0451 64.6667C51.1918 64.6667 50.5 65.3585 50.5 66.2118V70.381C50.5 71.5779 50.5 72.1764 50.6684 72.6575C50.9699 73.5193 51.6474 74.1968 52.5092 74.4984C52.9903 74.6667 53.5888 74.6667 54.7857 74.6667H61.2143C62.4112 74.6667 63.0097 74.6667 63.4908 74.4984C64.3526 74.1968 65.0301 73.5193 65.3316 72.6575C65.5 72.1764 65.5 71.5779 65.5 70.381V66.2118C65.5 65.3585 64.8082 64.6667 63.9549 64.6667C63.3697 64.6667 62.8347 64.3361 62.5729 63.8126L61.8889 62.4445L61.8836 62.434C61.5448 61.7609 60.8564 61.3355 60.1028 61.3334L60.0911 61.3334H55.9089L55.8972 61.3334C55.1436 61.3355 54.4552 61.7609 54.1164 62.434L54.1111 62.4445L53.4271 63.8126C53.1653 64.3361 52.6303 64.6667 52.0451 64.6667ZM59.3333 68.8334C59.3333 69.5698 58.7364 70.1667 58 70.1667C57.2636 70.1667 56.6667 69.5698 56.6667 68.8334C56.6667 68.097 57.2636 67.5 58 67.5C58.7364 67.5 59.3333 68.097 59.3333 68.8334ZM61.3333 68.8334C61.3333 70.6743 59.841 72.1667 58 72.1667C56.1591 72.1667 54.6667 70.6743 54.6667 68.8334C54.6667 66.9924 56.1591 65.5 58 65.5C59.841 65.5 61.3333 66.9924 61.3333 68.8334Z" fill="#FF4900"/>
<path d="M82.917 68.073C83.3277 68.1463 83.676 68.3627 83.962 68.722C84.248 69.0813 84.391 69.4883 84.391 69.943C84.391 70.3317 84.2883 70.6837 84.083 70.999C83.885 71.307 83.5953 71.5527 83.214 71.736C82.8327 71.912 82.389 72 81.883 72H78.825V64.355H81.74C82.2607 64.355 82.708 64.443 83.082 64.619C83.456 64.795 83.7383 65.0333 83.929 65.334C84.1197 65.6273 84.215 65.9573 84.215 66.324C84.215 66.764 84.0977 67.1307 83.863 67.424C83.6283 67.7173 83.313 67.9337 82.917 68.073ZM80.079 67.567H81.63C82.0407 67.567 82.3597 67.4753 82.587 67.292C82.8217 67.1013 82.939 66.83 82.939 66.478C82.939 66.1333 82.8217 65.8657 82.587 65.675C82.3597 65.477 82.0407 65.378 81.63 65.378H80.079V67.567ZM81.773 70.977C82.1983 70.977 82.532 70.8743 82.774 70.669C83.016 70.4637 83.137 70.1777 83.137 69.811C83.137 69.437 83.0087 69.14 82.752 68.92C82.4953 68.7 82.1543 68.59 81.729 68.59H80.079V70.977H81.773ZM91.3087 68.821C91.3087 69.0483 91.294 69.2537 91.2647 69.437H86.6337C86.6704 69.921 86.85 70.3097 87.1727 70.603C87.4954 70.8963 87.8914 71.043 88.3607 71.043C89.0354 71.043 89.512 70.7607 89.7907 70.196H91.1437C90.9604 70.7533 90.6267 71.2117 90.1427 71.571C89.666 71.923 89.072 72.099 88.3607 72.099C87.7814 72.099 87.2607 71.9707 86.7987 71.714C86.344 71.45 85.9847 71.0833 85.7207 70.614C85.464 70.1373 85.3357 69.5873 85.3357 68.964C85.3357 68.3407 85.4604 67.7943 85.7097 67.325C85.9664 66.8483 86.322 66.4817 86.7767 66.225C87.2387 65.9683 87.7667 65.84 88.3607 65.84C88.9327 65.84 89.4424 65.9647 89.8897 66.214C90.337 66.4633 90.6854 66.8153 90.9347 67.27C91.184 67.7173 91.3087 68.2343 91.3087 68.821ZM89.9997 68.425C89.9924 67.963 89.8274 67.5927 89.5047 67.314C89.182 67.0353 88.7824 66.896 88.3057 66.896C87.873 66.896 87.5027 67.0353 87.1947 67.314C86.8867 67.5853 86.7034 67.9557 86.6447 68.425H89.9997ZM94.7428 72.099C94.2661 72.099 93.8371 72.0147 93.4558 71.846C93.0818 71.67 92.7848 71.4353 92.5648 71.142C92.3448 70.8413 92.2274 70.5077 92.2128 70.141H93.5108C93.5328 70.3977 93.6538 70.614 93.8738 70.79C94.1011 70.9587 94.3834 71.043 94.7208 71.043C95.0728 71.043 95.3441 70.977 95.5348 70.845C95.7328 70.7057 95.8318 70.5297 95.8318 70.317C95.8318 70.0897 95.7218 69.921 95.5018 69.811C95.2891 69.701 94.9481 69.58 94.4788 69.448C94.0241 69.3233 93.6538 69.2023 93.3678 69.085C93.0818 68.9677 92.8324 68.788 92.6198 68.546C92.4144 68.304 92.3118 67.985 92.3118 67.589C92.3118 67.2663 92.4071 66.973 92.5978 66.709C92.7884 66.4377 93.0598 66.225 93.4118 66.071C93.7711 65.917 94.1818 65.84 94.6438 65.84C95.3331 65.84 95.8868 66.016 96.3048 66.368C96.7301 66.7127 96.9574 67.1857 96.9868 67.787H95.7328C95.7108 67.5157 95.6008 67.2993 95.4028 67.138C95.2048 66.9767 94.9371 66.896 94.5998 66.896C94.2698 66.896 94.0168 66.9583 93.8408 67.083C93.6648 67.2077 93.5768 67.3727 93.5768 67.578C93.5768 67.7393 93.6354 67.875 93.7528 67.985C93.8701 68.095 94.0131 68.183 94.1818 68.249C94.3504 68.3077 94.5998 68.3847 94.9298 68.48C95.3698 68.5973 95.7291 68.7183 96.0078 68.843C96.2938 68.9603 96.5394 69.1363 96.7448 69.371C96.9501 69.6057 97.0564 69.9173 97.0638 70.306C97.0638 70.6507 96.9684 70.9587 96.7778 71.23C96.5871 71.5013 96.3158 71.714 95.9638 71.868C95.6191 72.022 95.2121 72.099 94.7428 72.099ZM99.8818 66.962V70.317C99.8818 70.5443 99.9331 70.7093 100.036 70.812C100.146 70.9073 100.329 70.955 100.586 70.955H101.356V72H100.366C99.8011 72 99.3684 71.868 99.0678 71.604C98.7671 71.34 98.6168 70.911 98.6168 70.317V66.962H97.9018V65.939H98.6168V64.432H99.8818V65.939H101.356V66.962H99.8818ZM110.715 66.632C110.715 67.0207 110.623 67.3873 110.44 67.732C110.257 68.0767 109.963 68.359 109.56 68.579C109.157 68.7917 108.64 68.898 108.009 68.898H106.623V72H105.369V64.355H108.009C108.596 64.355 109.091 64.4577 109.494 64.663C109.905 64.861 110.209 65.1323 110.407 65.477C110.612 65.8217 110.715 66.2067 110.715 66.632ZM108.009 67.875C108.486 67.875 108.841 67.7687 109.076 67.556C109.311 67.336 109.428 67.028 109.428 66.632C109.428 65.796 108.955 65.378 108.009 65.378H106.623V67.875H108.009ZM115.046 65.84C115.508 65.84 115.919 65.939 116.278 66.137C116.645 66.335 116.931 66.6283 117.136 67.017C117.349 67.4057 117.455 67.875 117.455 68.425V72H116.212V68.612C116.212 68.0693 116.076 67.655 115.805 67.369C115.534 67.0757 115.163 66.929 114.694 66.929C114.225 66.929 113.851 67.0757 113.572 67.369C113.301 67.655 113.165 68.0693 113.165 68.612V72H111.911V63.86H113.165V66.643C113.378 66.3863 113.645 66.1883 113.968 66.049C114.298 65.9097 114.657 65.84 115.046 65.84ZM121.683 72.099C121.111 72.099 120.594 71.9707 120.132 71.714C119.67 71.45 119.307 71.0833 119.043 70.614C118.779 70.1373 118.647 69.5873 118.647 68.964C118.647 68.348 118.783 67.8017 119.054 67.325C119.326 66.8483 119.696 66.4817 120.165 66.225C120.635 65.9683 121.159 65.84 121.738 65.84C122.318 65.84 122.842 65.9683 123.311 66.225C123.781 66.4817 124.151 66.8483 124.422 67.325C124.694 67.8017 124.829 68.348 124.829 68.964C124.829 69.58 124.69 70.1263 124.411 70.603C124.133 71.0797 123.751 71.45 123.267 71.714C122.791 71.9707 122.263 72.099 121.683 72.099ZM121.683 71.01C122.006 71.01 122.307 70.933 122.585 70.779C122.871 70.625 123.102 70.394 123.278 70.086C123.454 69.778 123.542 69.404 123.542 68.964C123.542 68.524 123.458 68.1537 123.289 67.853C123.121 67.545 122.897 67.314 122.618 67.16C122.34 67.006 122.039 66.929 121.716 66.929C121.394 66.929 121.093 67.006 120.814 67.16C120.543 67.314 120.327 67.545 120.165 67.853C120.004 68.1537 119.923 68.524 119.923 68.964C119.923 69.6167 120.088 70.1227 120.418 70.482C120.756 70.834 121.177 71.01 121.683 71.01ZM127.532 66.962V70.317C127.532 70.5443 127.583 70.7093 127.686 70.812C127.796 70.9073 127.979 70.955 128.236 70.955H129.006V72H128.016C127.451 72 127.019 71.868 126.718 71.604C126.417 71.34 126.267 70.911 126.267 70.317V66.962H125.552V65.939H126.267V64.432H127.532V65.939H129.006V66.962H127.532ZM132.791 72.099C132.219 72.099 131.702 71.9707 131.24 71.714C130.778 71.45 130.415 71.0833 130.151 70.614C129.887 70.1373 129.755 69.5873 129.755 68.964C129.755 68.348 129.891 67.8017 130.162 67.325C130.433 66.8483 130.804 66.4817 131.273 66.225C131.742 65.9683 132.267 65.84 132.846 65.84C133.425 65.84 133.95 65.9683 134.419 66.225C134.888 66.4817 135.259 66.8483 135.53 67.325C135.801 67.8017 135.937 68.348 135.937 68.964C135.937 69.58 135.798 70.1263 135.519 70.603C135.24 71.0797 134.859 71.45 134.375 71.714C133.898 71.9707 133.37 72.099 132.791 72.099ZM132.791 71.01C133.114 71.01 133.414 70.933 133.693 70.779C133.979 70.625 134.21 70.394 134.386 70.086C134.562 69.778 134.65 69.404 134.65 68.964C134.65 68.524 134.566 68.1537 134.397 67.853C134.228 67.545 134.005 67.314 133.726 67.16C133.447 67.006 133.147 66.929 132.824 66.929C132.501 66.929 132.201 67.006 131.922 67.16C131.651 67.314 131.434 67.545 131.273 67.853C131.112 68.1537 131.031 68.524 131.031 68.964C131.031 69.6167 131.196 70.1227 131.526 70.482C131.863 70.834 132.285 71.01 132.791 71.01Z" fill="black"/>
<path fill-rule="evenodd" clip-rule="evenodd" d="M50.5453 31.3787C49.6667 32.2574 49.6667 33.6716 49.6667 36.5V39.5C49.6667 42.3284 49.6667 43.7426 50.5453 44.6213C51.424 45.5 52.8382 45.5 55.6667 45.5H60.3333C63.1617 45.5 64.576 45.5 65.4546 44.6213C66.3333 43.7426 66.3333 42.3284 66.3333 39.5V36.5C66.3333 33.6716 66.3333 32.2574 65.4546 31.3787C64.576 30.5 63.1617 30.5 60.3333 30.5H55.6667C52.8382 30.5 51.424 30.5 50.5453 31.3787ZM61.3333 34.5C61.8856 34.5 62.3333 34.9477 62.3333 35.5V42.1667C62.3333 42.719 61.8856 43.1667 61.3333 43.1667C60.781 43.1667 60.3333 42.719 60.3333 42.1667V35.5C60.3333 34.9477 60.781 34.5 61.3333 34.5ZM55.6667 37.1667C55.6667 36.6144 55.2189 36.1667 54.6667 36.1667C54.1144 36.1667 53.6667 36.6144 53.6667 37.1667V42.1667C53.6667 42.719 54.1144 43.1667 54.6667 43.1667C55.2189 43.1667 55.6667 42.719 55.6667 42.1667V37.1667ZM59 38.8333C59 38.281 58.5523 37.8333 58 37.8333C57.4477 37.8333 57 38.281 57 38.8333V42.1667C57 42.719 57.4477 43.1667 58 43.1667C58.5523 43.1667 59 42.719 59 42.1667V38.8333Z" fill="#FF4900"/>
<path d="M82.917 38.073C83.3277 38.1463 83.676 38.3627 83.962 38.722C84.248 39.0813 84.391 39.4883 84.391 39.943C84.391 40.3317 84.2883 40.6837 84.083 40.999C83.885 41.307 83.5953 41.5527 83.214 41.736C82.8327 41.912 82.389 42 81.883 42H78.825V34.355H81.74C82.2607 34.355 82.708 34.443 83.082 34.619C83.456 34.795 83.7383 35.0333 83.929 35.334C84.1197 35.6273 84.215 35.9573 84.215 36.324C84.215 36.764 84.0977 37.1307 83.863 37.424C83.6283 37.7173 83.313 37.9337 82.917 38.073ZM80.079 37.567H81.63C82.0407 37.567 82.3597 37.4753 82.587 37.292C82.8217 37.1013 82.939 36.83 82.939 36.478C82.939 36.1333 82.8217 35.8657 82.587 35.675C82.3597 35.477 82.0407 35.378 81.63 35.378H80.079V37.567ZM81.773 40.977C82.1983 40.977 82.532 40.8743 82.774 40.669C83.016 40.4637 83.137 40.1777 83.137 39.811C83.137 39.437 83.0087 39.14 82.752 38.92C82.4953 38.7 82.1543 38.59 81.729 38.59H80.079V40.977H81.773ZM91.3087 38.821C91.3087 39.0483 91.294 39.2537 91.2647 39.437H86.6337C86.6704 39.921 86.85 40.3097 87.1727 40.603C87.4954 40.8963 87.8914 41.043 88.3607 41.043C89.0354 41.043 89.512 40.7607 89.7907 40.196H91.1437C90.9604 40.7533 90.6267 41.2117 90.1427 41.571C89.666 41.923 89.072 42.099 88.3607 42.099C87.7814 42.099 87.2607 41.9707 86.7987 41.714C86.344 41.45 85.9847 41.0833 85.7207 40.614C85.464 40.1373 85.3357 39.5873 85.3357 38.964C85.3357 38.3407 85.4604 37.7943 85.7097 37.325C85.9664 36.8483 86.322 36.4817 86.7767 36.225C87.2387 35.9683 87.7667 35.84 88.3607 35.84C88.9327 35.84 89.4424 35.9647 89.8897 36.214C90.337 36.4633 90.6854 36.8153 90.9347 37.27C91.184 37.7173 91.3087 38.2343 91.3087 38.821ZM89.9997 38.425C89.9924 37.963 89.8274 37.5927 89.5047 37.314C89.182 37.0353 88.7824 36.896 88.3057 36.896C87.873 36.896 87.5027 37.0353 87.1947 37.314C86.8867 37.5853 86.7034 37.9557 86.6447 38.425H89.9997ZM94.7428 42.099C94.2661 42.099 93.8371 42.0147 93.4558 41.846C93.0818 41.67 92.7848 41.4353 92.5648 41.142C92.3448 40.8413 92.2274 40.5077 92.2128 40.141H93.5108C93.5328 40.3977 93.6538 40.614 93.8738 40.79C94.1011 40.9587 94.3834 41.043 94.7208 41.043C95.0728 41.043 95.3441 40.977 95.5348 40.845C95.7328 40.7057 95.8318 40.5297 95.8318 40.317C95.8318 40.0897 95.7218 39.921 95.5018 39.811C95.2891 39.701 94.9481 39.58 94.4788 39.448C94.0241 39.3233 93.6538 39.2023 93.3678 39.085C93.0818 38.9677 92.8324 38.788 92.6198 38.546C92.4144 38.304 92.3118 37.985 92.3118 37.589C92.3118 37.2663 92.4071 36.973 92.5978 36.709C92.7884 36.4377 93.0598 36.225 93.4118 36.071C93.7711 35.917 94.1818 35.84 94.6438 35.84C95.3331 35.84 95.8868 36.016 96.3048 36.368C96.7301 36.7127 96.9574 37.1857 96.9868 37.787H95.7328C95.7108 37.5157 95.6008 37.2993 95.4028 37.138C95.2048 36.9767 94.9371 36.896 94.5998 36.896C94.2698 36.896 94.0168 36.9583 93.8408 37.083C93.6648 37.2077 93.5768 37.3727 93.5768 37.578C93.5768 37.7393 93.6354 37.875 93.7528 37.985C93.8701 38.095 94.0131 38.183 94.1818 38.249C94.3504 38.3077 94.5998 38.3847 94.9298 38.48C95.3698 38.5973 95.7291 38.7183 96.0078 38.843C96.2938 38.9603 96.5394 39.1363 96.7448 39.371C96.9501 39.6057 97.0564 39.9173 97.0638 40.306C97.0638 40.6507 96.9684 40.9587 96.7778 41.23C96.5871 41.5013 96.3158 41.714 95.9638 41.868C95.6191 42.022 95.2121 42.099 94.7428 42.099ZM99.8818 36.962V40.317C99.8818 40.5443 99.9331 40.7093 100.036 40.812C100.146 40.9073 100.329 40.955 100.586 40.955H101.356V42H100.366C99.8011 42 99.3684 41.868 99.0678 41.604C98.7671 41.34 98.6168 40.911 98.6168 40.317V36.962H97.9018V35.939H98.6168V34.432H99.8818V35.939H101.356V36.962H99.8818ZM110.715 36.632C110.715 37.0207 110.623 37.3873 110.44 37.732C110.257 38.0767 109.963 38.359 109.56 38.579C109.157 38.7917 108.64 38.898 108.009 38.898H106.623V42H105.369V34.355H108.009C108.596 34.355 109.091 34.4577 109.494 34.663C109.905 34.861 110.209 35.1323 110.407 35.477C110.612 35.8217 110.715 36.2067 110.715 36.632ZM108.009 37.875C108.486 37.875 108.841 37.7687 109.076 37.556C109.311 37.336 109.428 37.028 109.428 36.632C109.428 35.796 108.955 35.378 108.009 35.378H106.623V37.875H108.009ZM113.165 33.86V42H111.911V33.86H113.165ZM114.393 38.942C114.393 38.3333 114.518 37.7943 114.767 37.325C115.024 36.8557 115.369 36.4927 115.801 36.236C116.241 35.972 116.725 35.84 117.253 35.84C117.73 35.84 118.144 35.9353 118.496 36.126C118.856 36.3093 119.142 36.5403 119.354 36.819V35.939H120.619V42H119.354V41.098C119.142 41.384 118.852 41.6223 118.485 41.813C118.119 42.0037 117.701 42.099 117.231 42.099C116.711 42.099 116.234 41.967 115.801 41.703C115.369 41.4317 115.024 41.0577 114.767 40.581C114.518 40.097 114.393 39.5507 114.393 38.942ZM119.354 38.964C119.354 38.546 119.266 38.183 119.09 37.875C118.922 37.567 118.698 37.3323 118.419 37.171C118.141 37.0097 117.84 36.929 117.517 36.929C117.195 36.929 116.894 37.0097 116.615 37.171C116.337 37.325 116.109 37.556 115.933 37.864C115.765 38.1647 115.68 38.524 115.68 38.942C115.68 39.36 115.765 39.7267 115.933 40.042C116.109 40.3573 116.337 40.5993 116.615 40.768C116.901 40.9293 117.202 41.01 117.517 41.01C117.84 41.01 118.141 40.9293 118.419 40.768C118.698 40.6067 118.922 40.372 119.09 40.064C119.266 39.7487 119.354 39.382 119.354 38.964ZM121.848 38.964C121.848 38.3407 121.973 37.7943 122.222 37.325C122.479 36.8483 122.831 36.4817 123.278 36.225C123.726 35.9683 124.239 35.84 124.818 35.84C125.552 35.84 126.157 36.016 126.633 36.368C127.117 36.7127 127.444 37.2077 127.612 37.853H126.259C126.149 37.5523 125.973 37.3177 125.731 37.149C125.489 36.9803 125.185 36.896 124.818 36.896C124.305 36.896 123.894 37.0793 123.586 37.446C123.286 37.8053 123.135 38.3113 123.135 38.964C123.135 39.6167 123.286 40.1263 123.586 40.493C123.894 40.8597 124.305 41.043 124.818 41.043C125.544 41.043 126.025 40.724 126.259 40.086H127.612C127.436 40.702 127.106 41.1933 126.622 41.56C126.138 41.9193 125.537 42.099 124.818 42.099C124.239 42.099 123.726 41.9707 123.278 41.714C122.831 41.45 122.479 41.0833 122.222 40.614C121.973 40.1373 121.848 39.5873 121.848 38.964ZM134.417 38.821C134.417 39.0483 134.402 39.2537 134.373 39.437H129.742C129.779 39.921 129.958 40.3097 130.281 40.603C130.604 40.8963 131 41.043 131.469 41.043C132.144 41.043 132.62 40.7607 132.899 40.196H134.252C134.069 40.7533 133.735 41.2117 133.251 41.571C132.774 41.923 132.18 42.099 131.469 42.099C130.89 42.099 130.369 41.9707 129.907 41.714C129.452 41.45 129.093 41.0833 128.829 40.614C128.572 40.1373 128.444 39.5873 128.444 38.964C128.444 38.3407 128.569 37.7943 128.818 37.325C129.075 36.8483 129.43 36.4817 129.885 36.225C130.347 35.9683 130.875 35.84 131.469 35.84C132.041 35.84 132.551 35.9647 132.998 36.214C133.445 36.4633 133.794 36.8153 134.043 37.27C134.292 37.7173 134.417 38.2343 134.417 38.821ZM133.108 38.425C133.101 37.963 132.936 37.5927 132.613 37.314C132.29 37.0353 131.891 36.896 131.414 36.896C130.981 36.896 130.611 37.0353 130.303 37.314C129.995 37.5853 129.812 37.9557 129.753 38.425H133.108Z" fill="black"/>
<path fill-rule="evenodd" clip-rule="evenodd" d="M58 106.333C62.6024 106.333 66.3333 102.602 66.3333 98C66.3333 93.3976 62.6024 89.6666 58 89.6666C53.3976 89.6666 49.6667 93.3976 49.6667 98C49.6667 102.602 53.3976 106.333 58 106.333ZM60.1651 96.7498C59.7019 95.9476 57.3423 94.6325 56.1671 94.0129C55.8512 93.8464 55.4775 94.0621 55.4638 94.419C55.4127 95.7466 55.3718 98.4476 55.835 99.2498C56.2981 100.052 58.6578 101.367 59.833 101.987C60.1489 102.153 60.5226 101.938 60.5363 101.581C60.5874 100.253 60.6283 97.5521 60.1651 96.7498Z" fill="#FF4900"/>
<path d="M82.917 98.073C83.3277 98.1463 83.676 98.3627 83.962 98.722C84.248 99.0813 84.391 99.4883 84.391 99.943C84.391 100.332 84.2883 100.684 84.083 100.999C83.885 101.307 83.5953 101.553 83.214 101.736C82.8327 101.912 82.389 102 81.883 102H78.825V94.355H81.74C82.2607 94.355 82.708 94.443 83.082 94.619C83.456 94.795 83.7383 95.0333 83.929 95.334C84.1197 95.6273 84.215 95.9573 84.215 96.324C84.215 96.764 84.0977 97.1307 83.863 97.424C83.6283 97.7173 83.313 97.9337 82.917 98.073ZM80.079 97.567H81.63C82.0407 97.567 82.3597 97.4753 82.587 97.292C82.8217 97.1013 82.939 96.83 82.939 96.478C82.939 96.1333 82.8217 95.8657 82.587 95.675C82.3597 95.477 82.0407 95.378 81.63 95.378H80.079V97.567ZM81.773 100.977C82.1983 100.977 82.532 100.874 82.774 100.669C83.016 100.464 83.137 100.178 83.137 99.811C83.137 99.437 83.0087 99.14 82.752 98.92C82.4953 98.7 82.1543 98.59 81.729 98.59H80.079V100.977H81.773ZM91.3087 98.821C91.3087 99.0483 91.294 99.2537 91.2647 99.437H86.6337C86.6704 99.921 86.85 100.31 87.1727 100.603C87.4954 100.896 87.8914 101.043 88.3607 101.043C89.0354 101.043 89.512 100.761 89.7907 100.196H91.1437C90.9604 100.753 90.6267 101.212 90.1427 101.571C89.666 101.923 89.072 102.099 88.3607 102.099C87.7814 102.099 87.2607 101.971 86.7987 101.714C86.344 101.45 85.9847 101.083 85.7207 100.614C85.464 100.137 85.3357 99.5873 85.3357 98.964C85.3357 98.3407 85.4604 97.7943 85.7097 97.325C85.9664 96.8483 86.322 96.4817 86.7767 96.225C87.2387 95.9683 87.7667 95.84 88.3607 95.84C88.9327 95.84 89.4424 95.9647 89.8897 96.214C90.337 96.4633 90.6854 96.8153 90.9347 97.27C91.184 97.7173 91.3087 98.2343 91.3087 98.821ZM89.9997 98.425C89.9924 97.963 89.8274 97.5927 89.5047 97.314C89.182 97.0353 88.7824 96.896 88.3057 96.896C87.873 96.896 87.5027 97.0353 87.1947 97.314C86.8867 97.5853 86.7034 97.9557 86.6447 98.425H89.9997ZM94.7428 102.099C94.2661 102.099 93.8371 102.015 93.4558 101.846C93.0818 101.67 92.7848 101.435 92.5648 101.142C92.3448 100.841 92.2274 100.508 92.2128 100.141H93.5108C93.5328 100.398 93.6538 100.614 93.8738 100.79C94.1011 100.959 94.3834 101.043 94.7208 101.043C95.0728 101.043 95.3441 100.977 95.5348 100.845C95.7328 100.706 95.8318 100.53 95.8318 100.317C95.8318 100.09 95.7218 99.921 95.5018 99.811C95.2891 99.701 94.9481 99.58 94.4788 99.448C94.0241 99.3233 93.6538 99.2023 93.3678 99.085C93.0818 98.9677 92.8324 98.788 92.6198 98.546C92.4144 98.304 92.3118 97.985 92.3118 97.589C92.3118 97.2663 92.4071 96.973 92.5978 96.709C92.7884 96.4377 93.0598 96.225 93.4118 96.071C93.7711 95.917 94.1818 95.84 94.6438 95.84C95.3331 95.84 95.8868 96.016 96.3048 96.368C96.7301 96.7127 96.9574 97.1857 96.9868 97.787H95.7328C95.7108 97.5157 95.6008 97.2993 95.4028 97.138C95.2048 96.9767 94.9371 96.896 94.5998 96.896C94.2698 96.896 94.0168 96.9583 93.8408 97.083C93.6648 97.2077 93.5768 97.3727 93.5768 97.578C93.5768 97.7393 93.6354 97.875 93.7528 97.985C93.8701 98.095 94.0131 98.183 94.1818 98.249C94.3504 98.3077 94.5998 98.3847 94.9298 98.48C95.3698 98.5973 95.7291 98.7183 96.0078 98.843C96.2938 98.9603 96.5394 99.1363 96.7448 99.371C96.9501 99.6057 97.0564 99.9173 97.0638 100.306C97.0638 100.651 96.9684 100.959 96.7778 101.23C96.5871 101.501 96.3158 101.714 95.9638 101.868C95.6191 102.022 95.2121 102.099 94.7428 102.099ZM99.8818 96.962V100.317C99.8818 100.544 99.9331 100.709 100.036 100.812C100.146 100.907 100.329 100.955 100.586 100.955H101.356V102H100.366C99.8011 102 99.3684 101.868 99.0678 101.604C98.7671 101.34 98.6168 100.911 98.6168 100.317V96.962H97.9018V95.939H98.6168V94.432H99.8818V95.939H101.356V96.962H99.8818ZM106.623 100.988H109.208V102H105.369V94.355H106.623V100.988ZM112.886 102.099C112.314 102.099 111.797 101.971 111.335 101.714C110.873 101.45 110.51 101.083 110.246 100.614C109.982 100.137 109.85 99.5873 109.85 98.964C109.85 98.348 109.985 97.8017 110.257 97.325C110.528 96.8483 110.898 96.4817 111.368 96.225C111.837 95.9683 112.361 95.84 112.941 95.84C113.52 95.84 114.044 95.9683 114.514 96.225C114.983 96.4817 115.353 96.8483 115.625 97.325C115.896 97.8017 116.032 98.348 116.032 98.964C116.032 99.58 115.892 100.126 115.614 100.603C115.335 101.08 114.954 101.45 114.47 101.714C113.993 101.971 113.465 102.099 112.886 102.099ZM112.886 101.01C113.208 101.01 113.509 100.933 113.788 100.779C114.074 100.625 114.305 100.394 114.481 100.086C114.657 99.778 114.745 99.404 114.745 98.964C114.745 98.524 114.66 98.1537 114.492 97.853C114.323 97.545 114.099 97.314 113.821 97.16C113.542 97.006 113.241 96.929 112.919 96.929C112.596 96.929 112.295 97.006 112.017 97.16C111.745 97.314 111.529 97.545 111.368 97.853C111.206 98.1537 111.126 98.524 111.126 98.964C111.126 99.6167 111.291 100.123 111.621 100.482C111.958 100.834 112.38 101.01 112.886 101.01ZM116.853 98.964C116.853 98.3407 116.978 97.7943 117.227 97.325C117.484 96.8483 117.836 96.4817 118.283 96.225C118.731 95.9683 119.244 95.84 119.823 95.84C120.557 95.84 121.162 96.016 121.638 96.368C122.122 96.7127 122.449 97.2077 122.617 97.853H121.264C121.154 97.5523 120.978 97.3177 120.736 97.149C120.494 96.9803 120.19 96.896 119.823 96.896C119.31 96.896 118.899 97.0793 118.591 97.446C118.291 97.8053 118.14 98.3113 118.14 98.964C118.14 99.6167 118.291 100.126 118.591 100.493C118.899 100.86 119.31 101.043 119.823 101.043C120.549 101.043 121.03 100.724 121.264 100.086H122.617C122.441 100.702 122.111 101.193 121.627 101.56C121.143 101.919 120.542 102.099 119.823 102.099C119.244 102.099 118.731 101.971 118.283 101.714C117.836 101.45 117.484 101.083 117.227 100.614C116.978 100.137 116.853 99.5873 116.853 98.964ZM123.449 98.942C123.449 98.3333 123.574 97.7943 123.823 97.325C124.08 96.8557 124.424 96.4927 124.857 96.236C125.297 95.972 125.781 95.84 126.309 95.84C126.786 95.84 127.2 95.9353 127.552 96.126C127.911 96.3093 128.197 96.5403 128.41 96.819V95.939H129.675V102H128.41V101.098C128.197 101.384 127.908 101.622 127.541 101.813C127.174 102.004 126.756 102.099 126.287 102.099C125.766 102.099 125.29 101.967 124.857 101.703C124.424 101.432 124.08 101.058 123.823 100.581C123.574 100.097 123.449 99.5507 123.449 98.942ZM128.41 98.964C128.41 98.546 128.322 98.183 128.146 97.875C127.977 97.567 127.754 97.3323 127.475 97.171C127.196 97.0097 126.896 96.929 126.573 96.929C126.25 96.929 125.95 97.0097 125.671 97.171C125.392 97.325 125.165 97.556 124.989 97.864C124.82 98.1647 124.736 98.524 124.736 98.942C124.736 99.36 124.82 99.7267 124.989 100.042C125.165 100.357 125.392 100.599 125.671 100.768C125.957 100.929 126.258 101.01 126.573 101.01C126.896 101.01 127.196 100.929 127.475 100.768C127.754 100.607 127.977 100.372 128.146 100.064C128.322 99.7487 128.41 99.382 128.41 98.964ZM132.785 96.962V100.317C132.785 100.544 132.836 100.709 132.939 100.812C133.049 100.907 133.232 100.955 133.489 100.955H134.259V102H133.269C132.704 102 132.272 101.868 131.971 101.604C131.67 101.34 131.52 100.911 131.52 100.317V96.962H130.805V95.939H131.52V94.432H132.785V95.939H134.259V96.962H132.785ZM136.053 95.136C135.826 95.136 135.635 95.059 135.481 94.905C135.327 94.751 135.25 94.5603 135.25 94.333C135.25 94.1057 135.327 93.915 135.481 93.761C135.635 93.607 135.826 93.53 136.053 93.53C136.273 93.53 136.46 93.607 136.614 93.761C136.768 93.915 136.845 94.1057 136.845 94.333C136.845 94.5603 136.768 94.751 136.614 94.905C136.46 95.059 136.273 95.136 136.053 95.136ZM136.669 95.939V102H135.415V95.939H136.669ZM140.944 102.099C140.372 102.099 139.855 101.971 139.393 101.714C138.931 101.45 138.568 101.083 138.304 100.614C138.04 100.137 137.908 99.5873 137.908 98.964C137.908 98.348 138.044 97.8017 138.315 97.325C138.587 96.8483 138.957 96.4817 139.426 96.225C139.896 95.9683 140.42 95.84 140.999 95.84C141.579 95.84 142.103 95.9683 142.572 96.225C143.042 96.4817 143.412 96.8483 143.683 97.325C143.955 97.8017 144.09 98.348 144.09 98.964C144.09 99.58 143.951 100.126 143.672 100.603C143.394 101.08 143.012 101.45 142.528 101.714C142.052 101.971 141.524 102.099 140.944 102.099ZM140.944 101.01C141.267 101.01 141.568 100.933 141.846 100.779C142.132 100.625 142.363 100.394 142.539 100.086C142.715 99.778 142.803 99.404 142.803 98.964C142.803 98.524 142.719 98.1537 142.55 97.853C142.382 97.545 142.158 97.314 141.879 97.16C141.601 97.006 141.3 96.929 140.977 96.929C140.655 96.929 140.354 97.006 140.075 97.16C139.804 97.314 139.588 97.545 139.426 97.853C139.265 98.1537 139.184 98.524 139.184 98.964C139.184 99.6167 139.349 100.123 139.679 100.482C140.017 100.834 140.438 101.01 140.944 101.01ZM148.388 95.84C148.865 95.84 149.29 95.939 149.664 96.137C150.045 96.335 150.342 96.6283 150.555 97.017C150.768 97.4057 150.874 97.875 150.874 98.425V102H149.631V98.612C149.631 98.0693 149.495 97.655 149.224 97.369C148.953 97.0757 148.582 96.929 148.113 96.929C147.644 96.929 147.27 97.0757 146.991 97.369C146.72 97.655 146.584 98.0693 146.584 98.612V102H145.33V95.939H146.584V96.632C146.789 96.3827 147.05 96.1883 147.365 96.049C147.688 95.9097 148.029 95.84 148.388 95.84Z" fill="black"/>
<defs>
<filter id="filter0_d_1_66" x="0" y="0" width="198" height="175" filterUnits="userSpaceOnUse" color-interpolation-filters="sRGB">
<feFlood flood-opacity="0" result="BackgroundImageFix"/>
<feColorMatrix in="SourceAlpha" type="matrix" values="0 0 0 0 0 0 0 0 0 0 0 0 0 0 0 0 0 0 127 0" result="hardAlpha"/>
<feOffset dy="20"/>
<feGaussianBlur stdDeviation="17.5"/>
<feComposite in2="hardAlpha" operator="out"/>
<feColorMatrix type="matrix" values="0 0 0 0 0 0 0 0 0 0 0 0 0 0 0 0 0 0 0.15 0"/>
<feBlend mode="normal" in2="BackgroundImageFix" result="effect1_dropShadow_1_66"/>
<feBlend mode="normal" in="SourceGraphic" in2="effect1_dropShadow_1_66" result="shape"/>
</filter>
</defs>
</svg>
