<svg width="168" height="65" viewBox="0 0 168 65" fill="none" xmlns="http://www.w3.org/2000/svg">
<circle cx="30" cy="13" r="13" fill="#FF4900"/>
<path d="M18.784 19.44V24.432H12.768V42H6.496V24.432H0.544V19.44H18.784ZM27.3765 27.216C28.0805 26.192 28.9338 25.3813 29.9365 24.784C30.9392 24.1867 32.0165 23.888 33.1685 23.888V30.576H31.4085C30.0432 30.576 29.0298 30.8427 28.3685 31.376C27.7072 31.9093 27.3765 32.8373 27.3765 34.16V42H21.1045V24.048H27.3765V27.216ZM34.393 33.008C34.393 31.152 34.7237 29.5307 35.385 28.144C36.0677 26.7573 36.985 25.6907 38.137 24.944C39.3103 24.1973 40.6117 23.824 42.041 23.824C43.2783 23.824 44.345 24.0693 45.241 24.56C46.137 25.0507 46.8303 25.712 47.321 26.544V24.048H53.593V42H47.321V39.504C46.8303 40.336 46.1263 40.9973 45.209 41.488C44.313 41.9787 43.257 42.224 42.041 42.224C40.6117 42.224 39.3103 41.8507 38.137 41.104C36.985 40.3573 36.0677 39.2907 35.385 37.904C34.7237 36.496 34.393 34.864 34.393 33.008ZM47.321 33.008C47.321 31.856 47.001 30.9493 46.361 30.288C45.7423 29.6267 44.9743 29.296 44.057 29.296C43.1183 29.296 42.3397 29.6267 41.721 30.288C41.1023 30.928 40.793 31.8347 40.793 33.008C40.793 34.16 41.1023 35.0773 41.721 35.76C42.3397 36.4213 43.1183 36.752 44.057 36.752C44.9743 36.752 45.7423 36.4213 46.361 35.76C47.001 35.0987 47.321 34.1813 47.321 33.008ZM65.775 36.08L69.135 24.048H75.823L69.647 42H61.839L55.663 24.048H62.351L65.775 36.08ZM95.1003 32.816C95.1003 33.3067 95.0683 33.7973 95.0043 34.288H83.1323C83.1963 35.2693 83.4629 36.0053 83.9323 36.496C84.4229 36.9653 85.0416 37.2 85.7883 37.2C86.8336 37.2 87.5803 36.7307 88.0283 35.792H94.7163C94.4389 37.0293 93.8949 38.1387 93.0843 39.12C92.2949 40.08 91.2923 40.8373 90.0763 41.392C88.8603 41.9467 87.5163 42.224 86.0443 42.224C84.2736 42.224 82.6949 41.8507 81.3083 41.104C79.9429 40.3573 78.8656 39.2907 78.0763 37.904C77.3083 36.5173 76.9243 34.8853 76.9243 33.008C76.9243 31.1307 77.3083 29.5093 78.0763 28.144C78.8443 26.7573 79.9109 25.6907 81.2763 24.944C82.6629 24.1973 84.2523 23.824 86.0443 23.824C87.8149 23.824 89.3829 24.1867 90.7483 24.912C92.1136 25.6373 93.1803 26.6827 93.9483 28.048C94.7163 29.392 95.1003 30.9813 95.1003 32.816ZM88.7003 31.248C88.7003 30.48 88.4443 29.8827 87.9323 29.456C87.4203 29.008 86.7803 28.784 86.0123 28.784C85.2443 28.784 84.6149 28.9973 84.1243 29.424C83.6336 29.8293 83.3136 30.4373 83.1643 31.248H88.7003ZM103.939 18.32V42H97.667V18.32H103.939Z" fill="#242424"/>
<path d="M122.807 19.44V24.432H113.783V28.4H120.439V33.168H113.783V42H107.511V19.44H122.807ZM143.816 24.048V42H137.512V39.44C136.979 40.2507 136.243 40.912 135.304 41.424C134.366 41.9147 133.288 42.16 132.072 42.16C129.982 42.16 128.328 41.4773 127.112 40.112C125.918 38.7253 125.32 36.848 125.32 34.48V24.048H131.56V33.68C131.56 34.704 131.827 35.5147 132.36 36.112C132.915 36.688 133.64 36.976 134.536 36.976C135.454 36.976 136.179 36.688 136.712 36.112C137.246 35.5147 137.512 34.704 137.512 33.68V24.048H143.816ZM159.13 23.888C161.199 23.888 162.842 24.5813 164.058 25.968C165.274 27.3333 165.882 29.1893 165.882 31.536V42H159.61V32.368C159.61 31.344 159.343 30.544 158.81 29.968C158.276 29.3707 157.562 29.072 156.666 29.072C155.727 29.072 154.991 29.3707 154.458 29.968C153.924 30.544 153.658 31.344 153.658 32.368V42H147.386V24.048H153.658V26.608C154.212 25.7973 154.959 25.1467 155.898 24.656C156.836 24.144 157.914 23.888 159.13 23.888Z" fill="#FF4900"/>
<path d="M12.764 52.355V53.378H10.729V60H9.475V53.378H7.429V52.355H12.764ZM15.288 54.819C15.4713 54.511 15.7133 54.2727 16.014 54.104C16.322 53.928 16.685 53.84 17.103 53.84V55.138H16.784C16.2927 55.138 15.9187 55.2627 15.662 55.512C15.4127 55.7613 15.288 56.194 15.288 56.81V60H14.034V53.939H15.288V54.819ZM17.8377 56.942C17.8377 56.3333 17.9623 55.7943 18.2117 55.325C18.4683 54.8557 18.813 54.4927 19.2457 54.236C19.6857 53.972 20.1697 53.84 20.6977 53.84C21.1743 53.84 21.5887 53.9353 21.9407 54.126C22.3 54.3093 22.586 54.5403 22.7987 54.819V53.939H24.0637V60H22.7987V59.098C22.586 59.384 22.2963 59.6223 21.9297 59.813C21.563 60.0037 21.145 60.099 20.6757 60.099C20.155 60.099 19.6783 59.967 19.2457 59.703C18.813 59.4317 18.4683 59.0577 18.2117 58.581C17.9623 58.097 17.8377 57.5507 17.8377 56.942ZM22.7987 56.964C22.7987 56.546 22.7107 56.183 22.5347 55.875C22.366 55.567 22.1423 55.3323 21.8637 55.171C21.585 55.0097 21.2843 54.929 20.9617 54.929C20.639 54.929 20.3383 55.0097 20.0597 55.171C19.781 55.325 19.5537 55.556 19.3777 55.864C19.209 56.1647 19.1247 56.524 19.1247 56.942C19.1247 57.36 19.209 57.7267 19.3777 58.042C19.5537 58.3573 19.781 58.5993 20.0597 58.768C20.3457 58.9293 20.6463 59.01 20.9617 59.01C21.2843 59.01 21.585 58.9293 21.8637 58.768C22.1423 58.6067 22.366 58.372 22.5347 58.064C22.7107 57.7487 22.7987 57.382 22.7987 56.964ZM28.0537 58.878L29.7697 53.939H31.1007L28.7907 60H27.2947L24.9957 53.939H26.3377L28.0537 58.878ZM37.6036 56.821C37.6036 57.0483 37.589 57.2537 37.5596 57.437H32.9286C32.9653 57.921 33.145 58.3097 33.4676 58.603C33.7903 58.8963 34.1863 59.043 34.6556 59.043C35.3303 59.043 35.807 58.7607 36.0856 58.196H37.4386C37.2553 58.7533 36.9216 59.2117 36.4376 59.571C35.961 59.923 35.367 60.099 34.6556 60.099C34.0763 60.099 33.5556 59.9707 33.0936 59.714C32.639 59.45 32.2796 59.0833 32.0156 58.614C31.759 58.1373 31.6306 57.5873 31.6306 56.964C31.6306 56.3407 31.7553 55.7943 32.0046 55.325C32.2613 54.8483 32.617 54.4817 33.0716 54.225C33.5336 53.9683 34.0616 53.84 34.6556 53.84C35.2276 53.84 35.7373 53.9647 36.1846 54.214C36.632 54.4633 36.9803 54.8153 37.2296 55.27C37.479 55.7173 37.6036 56.2343 37.6036 56.821ZM36.2946 56.425C36.2873 55.963 36.1223 55.5927 35.7996 55.314C35.477 55.0353 35.0773 54.896 34.6006 54.896C34.168 54.896 33.7976 55.0353 33.4896 55.314C33.1816 55.5853 32.9983 55.9557 32.9396 56.425H36.2946ZM40.0917 51.86V60H38.8377V51.86H40.0917ZM42.3761 53.136C42.1488 53.136 41.9581 53.059 41.8041 52.905C41.6501 52.751 41.5731 52.5603 41.5731 52.333C41.5731 52.1057 41.6501 51.915 41.8041 51.761C41.9581 51.607 42.1488 51.53 42.3761 51.53C42.5961 51.53 42.7831 51.607 42.9371 51.761C43.0911 51.915 43.1681 52.1057 43.1681 52.333C43.1681 52.5603 43.0911 52.751 42.9371 52.905C42.7831 53.059 42.5961 53.136 42.3761 53.136ZM42.9921 53.939V60H41.7381V53.939H42.9921ZM47.6965 53.84C48.1731 53.84 48.5985 53.939 48.9725 54.137C49.3538 54.335 49.6508 54.6283 49.8635 55.017C50.0761 55.4057 50.1825 55.875 50.1825 56.425V60H48.9395V56.612C48.9395 56.0693 48.8038 55.655 48.5325 55.369C48.2611 55.0757 47.8908 54.929 47.4215 54.929C46.9521 54.929 46.5781 55.0757 46.2995 55.369C46.0281 55.655 45.8925 56.0693 45.8925 56.612V60H44.6385V53.939H45.8925V54.632C46.0978 54.3827 46.3581 54.1883 46.6735 54.049C46.9961 53.9097 47.3371 53.84 47.6965 53.84ZM54.224 53.84C54.6934 53.84 55.1077 53.9353 55.467 54.126C55.8337 54.3093 56.1197 54.5403 56.325 54.819V53.939H57.59V60.099C57.59 60.6563 57.4727 61.1513 57.238 61.584C57.0034 62.024 56.6624 62.3687 56.215 62.618C55.775 62.8673 55.247 62.992 54.631 62.992C53.8097 62.992 53.1277 62.7977 52.585 62.409C52.0424 62.0277 51.7344 61.507 51.661 60.847H52.904C52.9994 61.1623 53.201 61.4153 53.509 61.606C53.8244 61.804 54.1984 61.903 54.631 61.903C55.137 61.903 55.544 61.749 55.852 61.441C56.1674 61.133 56.325 60.6857 56.325 60.099V59.087C56.1124 59.373 55.8227 59.615 55.456 59.813C55.0967 60.0037 54.686 60.099 54.224 60.099C53.696 60.099 53.212 59.967 52.772 59.703C52.3394 59.4317 51.9947 59.0577 51.738 58.581C51.4887 58.097 51.364 57.5507 51.364 56.942C51.364 56.3333 51.4887 55.7943 51.738 55.325C51.9947 54.8557 52.3394 54.4927 52.772 54.236C53.212 53.972 53.696 53.84 54.224 53.84ZM56.325 56.964C56.325 56.546 56.237 56.183 56.061 55.875C55.8924 55.567 55.6687 55.3323 55.39 55.171C55.1114 55.0097 54.8107 54.929 54.488 54.929C54.1654 54.929 53.8647 55.0097 53.586 55.171C53.3074 55.325 53.08 55.556 52.904 55.864C52.7354 56.1647 52.651 56.524 52.651 56.942C52.651 57.36 52.7354 57.7267 52.904 58.042C53.08 58.3573 53.3074 58.5993 53.586 58.768C53.872 58.9293 54.1727 59.01 54.488 59.01C54.8107 59.01 55.1114 58.9293 55.39 58.768C55.6687 58.6067 55.8924 58.372 56.061 58.064C56.237 57.7487 56.325 57.382 56.325 56.964ZM68.3755 60H67.1215L63.3485 54.291V60H62.0945V52.344H63.3485L67.1215 58.042V52.344H68.3755V60ZM72.6513 60.099C72.0793 60.099 71.5623 59.9707 71.1003 59.714C70.6383 59.45 70.2753 59.0833 70.0113 58.614C69.7473 58.1373 69.6153 57.5873 69.6153 56.964C69.6153 56.348 69.7509 55.8017 70.0223 55.325C70.2936 54.8483 70.6639 54.4817 71.1333 54.225C71.6026 53.9683 72.1269 53.84 72.7063 53.84C73.2856 53.84 73.8099 53.9683 74.2793 54.225C74.7486 54.4817 75.1189 54.8483 75.3903 55.325C75.6616 55.8017 75.7973 56.348 75.7973 56.964C75.7973 57.58 75.6579 58.1263 75.3793 58.603C75.1006 59.0797 74.7193 59.45 74.2353 59.714C73.7586 59.9707 73.2306 60.099 72.6513 60.099ZM72.6513 59.01C72.9739 59.01 73.2746 58.933 73.5533 58.779C73.8393 58.625 74.0703 58.394 74.2463 58.086C74.4223 57.778 74.5103 57.404 74.5103 56.964C74.5103 56.524 74.4259 56.1537 74.2573 55.853C74.0886 55.545 73.8649 55.314 73.5863 55.16C73.3076 55.006 73.0069 54.929 72.6843 54.929C72.3616 54.929 72.0609 55.006 71.7823 55.16C71.5109 55.314 71.2946 55.545 71.1333 55.853C70.9719 56.1537 70.8913 56.524 70.8913 56.964C70.8913 57.6167 71.0563 58.1227 71.3863 58.482C71.7236 58.834 72.1453 59.01 72.6513 59.01ZM85.1769 53.939L83.2959 60H81.9759L80.7549 55.523L79.5339 60H78.2139L76.3219 53.939H77.5979L78.8629 58.812L80.1499 53.939H81.4589L82.6909 58.79L83.9449 53.939H85.1769ZM95.0765 52.355V60H93.8225V56.656H90.2255V60H88.9715V52.355H90.2255V55.633H93.8225V52.355H95.0765ZM96.3093 56.942C96.3093 56.3333 96.434 55.7943 96.6833 55.325C96.94 54.8557 97.2847 54.4927 97.7173 54.236C98.1573 53.972 98.6413 53.84 99.1693 53.84C99.646 53.84 100.06 53.9353 100.412 54.126C100.772 54.3093 101.058 54.5403 101.27 54.819V53.939H102.535V60H101.27V59.098C101.058 59.384 100.768 59.6223 100.401 59.813C100.035 60.0037 99.6167 60.099 99.1473 60.099C98.6267 60.099 98.15 59.967 97.7173 59.703C97.2847 59.4317 96.94 59.0577 96.6833 58.581C96.434 58.097 96.3093 57.5507 96.3093 56.942ZM101.27 56.964C101.27 56.546 101.182 56.183 101.006 55.875C100.838 55.567 100.614 55.3323 100.335 55.171C100.057 55.0097 99.756 54.929 99.4333 54.929C99.1107 54.929 98.81 55.0097 98.5313 55.171C98.2527 55.325 98.0253 55.556 97.8493 55.864C97.6807 56.1647 97.5963 56.524 97.5963 56.942C97.5963 57.36 97.6807 57.7267 97.8493 58.042C98.0253 58.3573 98.2527 58.5993 98.5313 58.768C98.8173 58.9293 99.118 59.01 99.4333 59.01C99.756 59.01 100.057 58.9293 100.335 58.768C100.614 58.6067 100.838 58.372 101.006 58.064C101.182 57.7487 101.27 57.382 101.27 56.964ZM106.525 58.878L108.241 53.939H109.572L107.262 60H105.766L103.467 53.939H104.809L106.525 58.878ZM116.075 56.821C116.075 57.0483 116.061 57.2537 116.031 57.437H111.4C111.437 57.921 111.617 58.3097 111.939 58.603C112.262 58.8963 112.658 59.043 113.127 59.043C113.802 59.043 114.279 58.7607 114.557 58.196H115.91C115.727 58.7533 115.393 59.2117 114.909 59.571C114.433 59.923 113.839 60.099 113.127 60.099C112.548 60.099 112.027 59.9707 111.565 59.714C111.111 59.45 110.751 59.0833 110.487 58.614C110.231 58.1373 110.102 57.5873 110.102 56.964C110.102 56.3407 110.227 55.7943 110.476 55.325C110.733 54.8483 111.089 54.4817 111.543 54.225C112.005 53.9683 112.533 53.84 113.127 53.84C113.699 53.84 114.209 53.9647 114.656 54.214C115.104 54.4633 115.452 54.8153 115.701 55.27C115.951 55.7173 116.075 56.2343 116.075 56.821ZM114.766 56.425C114.759 55.963 114.594 55.5927 114.271 55.314C113.949 55.0353 113.549 54.896 113.072 54.896C112.64 54.896 112.269 55.0353 111.961 55.314C111.653 55.5853 111.47 55.9557 111.411 56.425H114.766ZM124.666 52.355V53.378H121.421V55.633H123.951V56.656H121.421V60H120.167V52.355H124.666ZM131.317 53.939V60H130.063V59.285C129.865 59.5343 129.605 59.7323 129.282 59.879C128.967 60.0183 128.629 60.088 128.27 60.088C127.793 60.088 127.364 59.989 126.983 59.791C126.609 59.593 126.312 59.2997 126.092 58.911C125.879 58.5223 125.773 58.053 125.773 57.503V53.939H127.016V57.316C127.016 57.8587 127.152 58.2767 127.423 58.57C127.694 58.856 128.065 58.999 128.534 58.999C129.003 58.999 129.374 58.856 129.645 58.57C129.924 58.2767 130.063 57.8587 130.063 57.316V53.939H131.317ZM136.029 53.84C136.506 53.84 136.931 53.939 137.305 54.137C137.687 54.335 137.984 54.6283 138.196 55.017C138.409 55.4057 138.515 55.875 138.515 56.425V60H137.272V56.612C137.272 56.0693 137.137 55.655 136.865 55.369C136.594 55.0757 136.224 54.929 135.754 54.929C135.285 54.929 134.911 55.0757 134.632 55.369C134.361 55.655 134.225 56.0693 134.225 56.612V60H132.971V53.939H134.225V54.632C134.431 54.3827 134.691 54.1883 135.006 54.049C135.329 53.9097 135.67 53.84 136.029 53.84Z" fill="#242424"/>
</svg>
